<svg width="151" height="42" viewBox="0 0 151 42" fill="none" xmlns="http://www.w3.org/2000/svg">
<path d="M66.1322 14.3985C67.6815 14.3985 68.995 14.7129 70.0729 15.3416C71.1508 15.9703 71.9028 16.9021 72.3294 18.1371C72.7786 19.3496 72.8235 20.8428 72.4643 22.6166L70.4771 32.5862H66.2669L68.2205 22.7177C68.5123 21.2582 68.3777 20.1243 67.8164 19.3159C67.2548 18.4851 66.2333 18.0697 64.7512 18.0697C63.202 18.0697 61.9221 18.4964 60.9116 19.3496C59.9012 20.2029 59.2164 21.5052 58.8572 23.2566L56.971 32.5862H52.761L56.3311 14.6006H60.3392L59.3288 19.7201L58.6551 18.1034C59.5084 16.8235 60.5749 15.8917 61.8549 15.3079C63.157 14.7017 64.583 14.3985 66.1322 14.3985ZM83.9341 32.8218C82.4746 32.8218 81.1386 32.5076 79.926 31.8789C78.736 31.2501 77.7817 30.3521 77.0633 29.1843C76.3671 27.9943 76.0192 26.5686 76.0192 24.9069C76.0192 23.3801 76.266 21.9767 76.7601 20.6968C77.2765 19.417 77.9951 18.3055 78.9156 17.3624C79.8364 16.4194 80.9029 15.6896 82.1154 15.1732C83.3504 14.6567 84.6975 14.3985 86.1571 14.3985C87.6613 14.3985 88.9527 14.668 90.0303 15.2069C91.1306 15.7458 91.9615 16.5653 92.5227 17.6656C93.084 18.7434 93.3422 20.0906 93.2975 21.7073C93.2525 23.9302 92.8484 25.8838 92.085 27.5676C91.3214 29.2293 90.2548 30.5203 88.8852 31.4411C87.5156 32.3616 85.8651 32.8218 83.9341 32.8218ZM85.012 29.2182C86.2245 29.2182 87.291 28.9375 88.2115 28.376C89.1323 27.7922 89.862 26.9952 90.4008 25.9848C90.9397 24.9743 91.2092 23.8067 91.2092 22.4819C91.2092 21.0898 90.7937 19.9895 89.9631 19.1812C89.1323 18.3729 87.9645 17.9687 86.4602 17.9687C85.2702 17.9687 84.2037 18.2606 83.2604 18.8444C82.3399 19.4057 81.6102 20.1916 81.0714 21.202C80.5323 22.2125 80.263 23.3801 80.263 24.7049C80.263 26.097 80.6783 27.1973 81.5091 28.0057C82.3399 28.814 83.5075 29.2182 85.012 29.2182ZM89.424 32.5862L90.2324 28.477L91.3777 23.6944L91.9501 18.8781L92.7923 14.6006H97.0022L93.4321 32.5862H89.424ZM107.024 32.8218C105.564 32.8218 104.229 32.5076 103.016 31.8789C101.826 31.2501 100.872 30.3521 100.153 29.1843C99.457 27.9943 99.1089 26.5686 99.1089 24.9069C99.1089 23.3801 99.356 21.9767 99.8498 20.6968C100.366 19.417 101.085 18.3055 102.006 17.3624C102.926 16.4194 103.993 15.6896 105.205 15.1732C106.44 14.6567 107.787 14.3985 109.247 14.3985C110.751 14.3985 112.042 14.668 113.12 15.2069C114.22 15.7458 115.051 16.5653 115.612 17.6656C116.174 18.7434 116.432 20.0906 116.387 21.7073C116.342 23.9302 115.938 25.8838 115.175 27.5676C114.411 29.2293 113.345 30.5203 111.975 31.4411C110.605 32.3616 108.955 32.8218 107.024 32.8218ZM108.102 29.2182C109.314 29.2182 110.381 28.9375 111.301 28.376C112.222 27.7922 112.952 26.9952 113.491 25.9848C114.029 24.9743 114.299 23.8067 114.299 22.4819C114.299 21.0898 113.884 19.9895 113.053 19.1812C112.222 18.3729 111.054 17.9687 109.55 17.9687C108.36 17.9687 107.293 18.2606 106.35 18.8444C105.43 19.4057 104.7 20.1916 104.161 21.202C103.622 22.2125 103.353 23.3801 103.353 24.7049C103.353 26.097 103.768 27.1973 104.599 28.0057C105.43 28.814 106.597 29.2182 108.102 29.2182ZM112.514 32.5862L113.322 28.477L114.467 23.6944L115.04 18.8781L115.882 14.6006H120.092L116.522 32.5862H112.514ZM126.847 32.5862L122.704 14.6006H126.847L130.417 30.4643H128.295L138.231 14.6006H142.475L131.191 32.5862H126.847ZM141.502 32.5862L145.072 14.6006H149.282L145.712 32.5862H141.502ZM148.137 11.6367C147.374 11.6367 146.756 11.4122 146.285 10.9631C145.835 10.4916 145.611 9.93021 145.611 9.27904C145.611 8.51562 145.869 7.87569 146.386 7.35924C146.924 6.84281 147.621 6.58459 148.474 6.58459C149.215 6.58459 149.821 6.80914 150.293 7.25819C150.764 7.68482 151 8.21249 151 8.8412C151 9.672 150.742 10.3456 150.225 10.862C149.709 11.3785 149.013 11.6367 148.137 11.6367Z" fill="#100F0D"/>
<path fill-rule="evenodd" clip-rule="evenodd" d="M11.3763 10.854C12.8243 9.36454 14.3497 9.3557 15.4044 9.91171C17.9966 11.2777 18.5036 15.474 18.7558 18.4759C18.9571 20.8739 19.2705 22.9719 19.6646 25.3177C20.0941 27.8751 20.5567 32.5324 21.2697 34.6793C21.7167 36.0272 22.5516 36.7921 23.5756 37.2721C26.9664 38.8637 34.6757 40.0679 36.6374 35.8572C35.189 37.3473 33.6638 37.3557 32.6089 36.7997C30.0166 35.4341 29.5094 31.2376 29.2573 28.2356C29.056 25.8376 28.7427 23.7396 28.3487 21.3932C27.9192 18.8359 27.4562 14.1791 26.7439 12.0317C26.2968 10.6841 25.4616 9.91951 24.4372 9.4389C21.0471 7.84761 13.3375 6.64336 11.3763 10.854Z" fill="url(#paint0_linear_1_8)"/>
<path fill-rule="evenodd" clip-rule="evenodd" d="M5.95784 35.5717L5.4161 36.6615C5.17999 37.1369 5.38036 37.7093 5.85316 37.95H5.85346C6.32657 38.1908 6.91367 37.9854 7.14978 37.51L7.69152 36.4203C7.92763 35.9448 7.72749 35.3724 7.25446 35.1317L7.25416 35.1312C6.78083 34.8912 6.19423 35.0958 5.95784 35.5717ZM2.52357 37.6729L1.54794 39.6352C1.31168 40.1106 1.51212 40.6837 1.985 40.9242H1.98529C2.45832 41.1642 3.04522 40.9596 3.28133 40.4842L4.25697 38.5214C4.49313 38.0465 4.29306 37.4736 3.81988 37.2334L3.81968 37.2329C3.34657 36.9924 2.75967 37.1973 2.52357 37.6729ZM1.41892 33.4064L0.0993517 36.0613C-0.136759 36.5367 0.0633829 37.1094 0.536487 37.3503H0.53678C1.00981 37.5903 1.5967 37.386 1.83281 36.9103L3.15275 34.2554C3.38858 33.78 3.18872 33.2071 2.71554 32.9666H2.71519C2.242 32.7264 1.6554 32.931 1.41892 33.4064ZM18.6681 17.5186C16.742 21.413 14.1467 26.5254 12.2697 30.3314C12.2543 30.4219 12.226 30.511 12.1834 30.5967L9.9184 35.1537C9.68229 35.6291 9.09508 35.8342 8.62205 35.5937C8.14902 35.3525 7.9486 34.7801 8.18499 34.3047C9.15886 32.3455 10.0436 30.4792 11.006 28.543C11.2422 28.0681 11.042 27.4952 10.569 27.2544H10.5687C10.0957 27.014 9.50877 27.2188 9.27258 27.6945C8.20199 29.8482 7.13362 32.0037 6.06295 34.1574C5.82684 34.6331 5.23973 34.8379 4.7669 34.5974H4.76632C4.29359 34.3567 4.09345 33.7838 4.32957 33.3089C5.23554 31.4856 6.12274 29.6822 7.02767 27.862C7.26379 27.3866 7.06344 26.8147 6.59041 26.5734H6.59011C6.11723 26.3327 5.53018 26.5378 5.29401 27.0132C4.54506 28.52 3.79179 29.9573 3.04964 31.4505C2.81345 31.9259 2.27826 31.9686 1.7536 31.8903H1.75323C1.22856 31.8115 1.08005 31.0766 1.31617 30.6012L1.85186 29.5231L1.8234 29.5188C4.61574 23.7719 5.57188 21.7793 8.49554 16.0975C9.27935 14.5742 10.153 12.6526 11.0945 11.2701C11.2281 11.0742 11.3664 10.892 11.508 10.7229C12.9162 9.36448 14.3816 9.37252 15.4045 9.91165C17.7305 11.1376 18.3778 14.6426 18.6681 17.5186Z" fill="url(#paint1_linear_1_8)"/>
<path fill-rule="evenodd" clip-rule="evenodd" d="M34.2941 32.0585L32.9742 34.7139C32.7377 35.1888 32.9383 35.7617 33.4117 36.0019C33.8843 36.2429 34.4716 36.0373 34.7081 35.5624L36.0274 32.907C36.2639 32.4321 36.0633 31.8589 35.5904 31.6184H35.5899C35.117 31.3779 34.53 31.5831 34.2941 32.0585ZM31.016 27.9208L30.4746 29.0105C30.238 29.4862 30.4385 30.0586 30.9112 30.2991H30.9117C31.3845 30.5398 31.9716 30.3347 32.2075 29.8593L32.7494 28.7695C32.9858 28.2946 32.7855 27.7215 32.3126 27.481H32.3121C31.8392 27.2403 31.2522 27.4449 31.016 27.9208ZM38.8063 10.1084L33.1288 9.25825L54.6038 0C49.3648 10.7321 44.635 21.1364 38.7882 31.5793C38.5621 31.9834 37.9099 32.2151 37.4296 31.9539C37.0922 31.7712 36.7461 31.307 37.0934 30.6514L40.0671 25.038C40.4586 24.3 40.1972 23.7746 39.811 23.5417C39.3732 23.2783 38.7515 23.4014 38.3216 24.2129L35.2509 30.0088C34.3208 31.7642 32.7337 30.7436 33.5029 29.2058C34.6275 26.9583 35.8117 24.6894 37.0078 22.4323C37.8391 20.8618 36.109 20.008 35.2623 21.6065L33.1444 25.6039C32.9055 26.0548 32.3909 26.3498 31.9915 26.2998C31.4469 26.2311 31.0675 25.6231 31.4469 24.8583C33.8922 19.9385 36.3581 15.0288 38.8063 10.1084Z" fill="url(#paint2_linear_1_8)"/>
<defs>
<linearGradient id="paint0_linear_1_8" x1="13.0447" y1="4.38001" x2="36.2156" y2="44.4895" gradientUnits="userSpaceOnUse">
<stop stop-color="#8ED8C6"/>
<stop offset="0.175355" stop-color="#47B4D5"/>
<stop offset="0.683681" stop-color="#356CBE"/>
<stop offset="1" stop-color="#29449D"/>
</linearGradient>
<linearGradient id="paint1_linear_1_8" x1="-4.85852" y1="51.6683" x2="20.6181" y2="4.33767" gradientUnits="userSpaceOnUse">
<stop stop-color="#8ED8C6"/>
<stop offset="0.322581" stop-color="#47B4D5"/>
<stop offset="0.698925" stop-color="#356CBE"/>
<stop offset="1" stop-color="#29449D"/>
</linearGradient>
<linearGradient id="paint2_linear_1_8" x1="26.6234" y1="37.5049" x2="50.0832" y2="-5.40333" gradientUnits="userSpaceOnUse">
<stop stop-color="#8ED8C6"/>
<stop offset="0.322581" stop-color="#47B4D5"/>
<stop offset="0.698925" stop-color="#356CBE"/>
<stop offset="1" stop-color="#29449D"/>
</linearGradient>
</defs>
</svg>
